<svg width="18" height="15" viewBox="0 0 18 15" fill="none" xmlns="http://www.w3.org/2000/svg">
<path d="M10.6604 0.915902C10.6604 0.410063 11.0722 -0.00615276 11.5737 0.0596662C12.7931 0.219698 13.9549 0.698264 14.9384 1.45438C16.1652 2.39747 17.0459 3.71948 17.4436 5.21483C17.8414 6.71019 17.7339 8.29506 17.1378 9.723C16.5418 11.1509 15.4906 12.3419 14.1477 13.1107C12.8049 13.8794 11.2456 14.183 9.71243 13.974C8.17926 13.765 6.75811 13.0553 5.66997 11.9552C4.58184 10.8551 3.88772 9.42623 3.69555 7.89086C3.54148 6.65987 3.717 5.41573 4.19641 4.28312C4.39358 3.81729 4.961 3.67291 5.39721 3.92902C5.83342 4.18513 5.97075 4.74492 5.79525 5.21933C5.50814 5.99546 5.40931 6.83346 5.51318 7.66336C5.65519 8.79804 6.16817 9.854 6.97233 10.667C7.77649 11.48 8.82676 12.0045 9.95982 12.159C11.0929 12.3134 12.2452 12.0891 13.2376 11.521C14.23 10.9528 15.0069 10.0727 15.4474 9.01737C15.8879 7.96208 15.9673 6.79081 15.6734 5.68571C15.3794 4.5806 14.7286 3.6036 13.822 2.90663C13.1589 2.39687 12.3862 2.05781 11.5715 1.91245C11.0736 1.82359 10.6604 1.42174 10.6604 0.915902Z" fill="white"/>
<path fill-rule="evenodd" clip-rule="evenodd" d="M1.26641 5.24568C1.02926 4.84054 1.16544 4.31987 1.57058 4.08272L4.07567 2.61637C4.95744 2.10023 6.09067 2.39662 6.60682 3.2784L8.06541 5.77023C8.30256 6.17537 8.16638 6.69604 7.76124 6.93319C7.3561 7.17034 6.83543 7.03416 6.59828 6.62902L5.13968 4.13718C5.09783 4.06569 5.00595 4.04165 4.93445 4.0835L2.42937 5.54986C2.02423 5.787 1.50355 5.65082 1.26641 5.24568Z" fill="white"/>
</svg>