<svg width="24" height="24" viewBox="0 0 24 24" fill="none" xmlns="http://www.w3.org/2000/svg">
<path fill-rule="evenodd" clip-rule="evenodd" d="M8.25604 4.48547C9.1576 3.62811 10.3542 3.14999 11.5983 3.14999H12.4017C13.6458 3.14999 14.8424 3.62811 15.7439 4.48547L19.3422 7.90738C20.305 8.82292 20.85 10.0933 20.85 11.4219V16C20.85 18.6786 18.6786 20.85 16 20.85H7.99999C5.32141 20.85 3.14999 18.6786 3.14999 16V11.4219C3.14999 10.0933 3.69501 8.82292 4.65775 7.90738L8.25604 4.48547ZM11.5983 4.84999C10.7902 4.84999 10.0131 5.16052 9.42755 5.71736L5.82926 9.13927C5.20397 9.73391 4.84999 10.559 4.84999 11.4219V16C4.84999 17.7397 6.2603 19.15 7.99999 19.15H16C17.7397 19.15 19.15 17.7397 19.15 16V11.4219C19.15 10.559 18.796 9.73391 18.1707 9.13927L14.5724 5.71736C13.9869 5.16052 13.2097 4.84999 12.4017 4.84999H11.5983Z" fill="#FBC420"/>
<path fill-rule="evenodd" clip-rule="evenodd" d="M9.14999 16C9.14999 15.5306 9.53055 15.15 9.99999 15.15H14C14.4694 15.15 14.85 15.5306 14.85 16C14.85 16.4694 14.4694 16.85 14 16.85H9.99999C9.53055 16.85 9.14999 16.4694 9.14999 16Z" fill="#FBC420"/>
</svg>