<svg width="24" height="24" viewBox="0 0 24 24" fill="none" xmlns="http://www.w3.org/2000/svg">
<path fill-rule="evenodd" clip-rule="evenodd" d="M9.17573 15.85C8.51001 15.85 7.86139 16.0609 7.32299 16.4525L6.47397 17.0699C5.57324 17.725 6.03662 19.15 7.15037 19.15H16.8496C17.9634 19.15 18.4268 17.725 17.526 17.0699L16.677 16.4525C16.1386 16.0609 15.49 15.85 14.8243 15.85H9.17573ZM6.3231 15.0776C7.15206 14.4747 8.15072 14.15 9.17573 14.15H14.8243C15.8493 14.15 16.8479 14.4747 17.6769 15.0776L18.5259 15.6951C20.7582 17.3185 19.6098 20.85 16.8496 20.85H7.15037C4.3902 20.85 3.24183 17.3185 5.47408 15.6951L6.3231 15.0776Z" fill="white"/>
<path fill-rule="evenodd" clip-rule="evenodd" d="M12 4.84999C10.2603 4.84999 8.85 6.2603 8.85 7.99999C8.85 9.73969 10.2603 11.15 12 11.15C13.7397 11.15 15.15 9.73969 15.15 7.99999C15.15 6.2603 13.7397 4.84999 12 4.84999ZM7.15 7.99999C7.15 5.32141 9.32142 3.14999 12 3.14999C14.6786 3.14999 16.85 5.32141 16.85 7.99999C16.85 10.6786 14.6786 12.85 12 12.85C9.32142 12.85 7.15 10.6786 7.15 7.99999Z" fill="white"/>
</svg>