<svg viewBox="0 0 29 25" fill="none" xmlns="http://www.w3.org/2000/svg">
<path fill-rule="evenodd" clip-rule="evenodd" d="M2.56367 7.94728C2.56367 4.04101 5.73032 0.874359 9.63659 0.874359H10.3658C11.0504 0.874359 11.6053 1.42934 11.6053 2.11394C11.6053 2.79855 11.0504 3.35353 10.3658 3.35353H9.63659C7.09953 3.35353 5.04284 5.41022 5.04284 7.94728V8.67644C5.04284 9.36105 4.48786 9.91603 3.80325 9.91603C3.11865 9.91603 2.56367 9.36105 2.56367 8.67644V7.94728ZM17.1979 2.11394C17.1979 1.42934 17.7529 0.874359 18.4375 0.874359H18.9699C22.8762 0.874359 26.0428 4.04101 26.0428 7.94728V8.67644C26.0428 9.36105 25.4879 9.91603 24.8033 9.91603C24.1187 9.91603 23.5637 9.36105 23.5637 8.67644V7.94728C23.5637 5.41022 21.507 3.35353 18.9699 3.35353H18.4375C17.7529 3.35353 17.1979 2.79855 17.1979 2.11394ZM3.80325 12.6869C4.48786 12.6869 5.04284 13.2418 5.04284 13.9264V17.2806C5.04284 19.8177 7.09953 21.8744 9.63659 21.8744H10.3658C11.0504 21.8744 11.6053 22.4293 11.6053 23.1139C11.6053 23.7985 11.0504 24.3535 10.3658 24.3535H9.63659C5.73032 24.3535 2.56367 21.1869 2.56367 17.2806V13.9264C2.56367 13.2418 3.11865 12.6869 3.80325 12.6869ZM24.8033 12.6869C25.4879 12.6869 26.0428 13.2418 26.0428 13.9264V17.2806C26.0428 21.1869 22.8762 24.3535 18.9699 24.3535H18.4375C17.7529 24.3535 17.1979 23.7985 17.1979 23.1139C17.1979 22.4293 17.7529 21.8744 18.4375 21.8744H18.9699C21.507 21.8744 23.5637 19.8177 23.5637 17.2806V13.9264C23.5637 13.2418 24.1187 12.6869 24.8033 12.6869Z" fill="#FBC420"/>
<path fill-rule="evenodd" clip-rule="evenodd" d="M0.135416 13.923C0.13559 13.2384 0.690711 12.6835 1.37531 12.6837L27.6253 12.6904C28.3099 12.6905 28.8648 13.2457 28.8646 13.9303C28.8644 14.6149 28.3093 15.1697 27.6247 15.1695L1.37468 15.1629C0.690081 15.1627 0.135242 14.6076 0.135416 13.923Z" fill="#FBC420"/>
</svg>