<svg width="18" height="14" viewBox="0 0 18 14" fill="none" xmlns="http://www.w3.org/2000/svg">
<path fill-rule="evenodd" clip-rule="evenodd" d="M4.85 1.7C3.1103 1.7 1.7 3.1103 1.7 4.85V8.85C1.7 10.5897 3.1103 12 4.85 12H12.85C14.3506 12 15.6061 10.9507 15.9229 9.54581C14.804 9.1611 14 8.09944 14 6.85C14 5.60056 14.804 4.5389 15.9229 4.15419C15.6061 2.7493 14.3506 1.7 12.85 1.7H4.85ZM0 4.85C0 2.17142 2.17142 0 4.85 0H12.85C15.5286 0 17.7 2.17142 17.7 4.85C17.7 5.31944 17.3194 5.7 16.85 5.7C16.2149 5.7 15.7 6.21487 15.7 6.85C15.7 7.48513 16.2149 8 16.85 8C17.3194 8 17.7 8.38056 17.7 8.85C17.7 11.5286 15.5286 13.7 12.85 13.7H4.85C2.17142 13.7 0 11.5286 0 8.85V4.85Z" fill="white"/>
<path fill-rule="evenodd" clip-rule="evenodd" d="M11.55 0.850006C11.9366 0.850006 12.25 1.16341 12.25 1.55001L12.25 4.15001C12.25 4.53661 11.9366 4.85001 11.55 4.85001C11.1634 4.85001 10.85 4.53661 10.85 4.15001L10.85 1.55001C10.85 1.16341 11.1634 0.850006 11.55 0.850006Z" fill="white"/>
<path fill-rule="evenodd" clip-rule="evenodd" d="M11.55 8.85001C11.9366 8.85001 12.25 9.16341 12.25 9.55001L12.25 12.15C12.25 12.5366 11.9366 12.85 11.55 12.85C11.1634 12.85 10.85 12.5366 10.85 12.15L10.85 9.55001C10.85 9.16341 11.1634 8.85001 11.55 8.85001Z" fill="white"/>
<path fill-rule="evenodd" clip-rule="evenodd" d="M11.55 5.85001C11.9366 5.85001 12.25 6.16341 12.25 6.55001L12.25 7.15001C12.25 7.53661 11.9366 7.85001 11.55 7.85001C11.1634 7.85001 10.85 7.53661 10.85 7.15001L10.85 6.55001C10.85 6.16341 11.1634 5.85001 11.55 5.85001Z" fill="white"/>
</svg>